STARTFONT 2.3
FONT -FontForge-Zen Tokyo Zoo-Book-R-Normal--11-110-72-72-P-51-ISO10646-1
SIZE 11 72 72  4
FONTBOUNDINGBOX 16 17 -2 -3
COMMENT "Generated by fontforge, http://fontforge.sourceforge.net"
COMMENT "Copyright 2021 The Zen Tokyo Zoo Project Authors (https://github.com/googlefonts/zen-tokyo-zoo)"
STARTPROPERTIES 40
FOUNDRY "FontForge"
FAMILY_NAME "Zen Tokyo Zoo"
WEIGHT_NAME "Book"
SLANT "R"
SETWIDTH_NAME "Normal"
ADD_STYLE_NAME ""
PIXEL_SIZE 11
POINT_SIZE 110
RESOLUTION_X 72
RESOLUTION_Y 72
SPACING "P"
AVERAGE_WIDTH 51
CHARSET_REGISTRY "ISO10646"
CHARSET_ENCODING "1"
FONTNAME_REGISTRY ""
CHARSET_COLLECTIONS "ISO10646-1"
BITS_PER_PIXEL 4
FONT_NAME "ZenTokyoZoo-Regular"
FACE_NAME "Zen Tokyo Zoo Regular"
COPYRIGHT "Copyright 2021 The Zen Tokyo Zoo Project Authors (https://github.com/googlefonts/zen-tokyo-zoo)"
FONT_VERSION "1.002; ttfautohint (v1.8.3)"
FONT_ASCENT 9
FONT_DESCENT 2
UNDERLINE_POSITION -2
UNDERLINE_THICKNESS 1
X_HEIGHT 4
CAP_HEIGHT 9
RAW_ASCENT 800
RAW_DESCENT 200
NORM_SPACE 3
RELATIVE_WEIGHT 40
RELATIVE_SETWIDTH 50
SUPERSCRIPT_X 0
SUPERSCRIPT_Y 3
SUPERSCRIPT_SIZE 6
SUBSCRIPT_X 0
SUBSCRIPT_Y 0
SUBSCRIPT_SIZE 6
AVG_LOWERCASE_WIDTH 46
AVG_UPPERCASE_WIDTH 83
ENDPROPERTIES
CHARS 338
STARTCHAR CR
ENCODING 13
SWIDTH 600 0
DWIDTH 7 0
BBX 1 1 0 0
BITMAP
00
ENDCHAR
STARTCHAR space
ENCODING 32
SWIDTH 280 0
DWIDTH 3 0
BBX 1 1 0 0
BITMAP
00
ENDCHAR
STARTCHAR exclam
ENCODING 33
SWIDTH 196 0
DWIDTH 2 0
BBX 2 5 0 0
BITMAP
55
55
55
33
55
ENDCHAR
STARTCHAR quotedbl
ENCODING 34
SWIDTH 302 0
DWIDTH 3 0
BBX 4 2 0 3
BITMAP
5591
3350
ENDCHAR
STARTCHAR numbersign
ENCODING 35
SWIDTH 513 0
DWIDTH 6 0
BBX 6 5 0 0
BITMAP
165881
166661
376540
364940
063800
ENDCHAR
STARTCHAR dollar
ENCODING 36
SWIDTH 379 0
DWIDTH 4 0
BBX 4 6 0 -1
BITMAP
0350
5566
6661
0566
4466
1461
ENDCHAR
STARTCHAR percent
ENCODING 37
SWIDTH 493 0
DWIDTH 5 0
BBX 6 5 0 0
BITMAP
5B4650
558700
017850
056771
272990
ENDCHAR
STARTCHAR ampersand
ENCODING 38
SWIDTH 487 0
DWIDTH 5 0
BBX 5 5 0 0
BITMAP
05B700
057700
066530
546760
3A5740
ENDCHAR
STARTCHAR quotesingle
ENCODING 39
SWIDTH 146 0
DWIDTH 2 0
BBX 2 2 0 3
BITMAP
55
33
ENDCHAR
STARTCHAR parenleft
ENCODING 40
SWIDTH 210 0
DWIDTH 2 0
BBX 2 6 0 0
BITMAP
14
56
55
55
55
37
ENDCHAR
STARTCHAR parenright
ENCODING 41
SWIDTH 210 0
DWIDTH 2 0
BBX 2 6 0 0
BITMAP
33
55
37
28
46
55
ENDCHAR
STARTCHAR asterisk
ENCODING 42
SWIDTH 358 0
DWIDTH 4 0
BBX 4 3 0 2
BITMAP
1451
2221
0550
ENDCHAR
STARTCHAR plus
ENCODING 43
SWIDTH 394 0
DWIDTH 4 0
BBX 4 4 0 1
BITMAP
0330
3654
3654
0550
ENDCHAR
STARTCHAR comma
ENCODING 44
SWIDTH 216 0
DWIDTH 2 0
BBX 2 2 0 0
BITMAP
23
55
ENDCHAR
STARTCHAR hyphen
ENCODING 45
SWIDTH 326 0
DWIDTH 4 0
BBX 3 2 0 2
BITMAP
2550
2550
ENDCHAR
STARTCHAR period
ENCODING 46
SWIDTH 176 0
DWIDTH 2 0
BBX 2 1 0 0
BITMAP
55
ENDCHAR
STARTCHAR slash
ENCODING 47
SWIDTH 298 0
DWIDTH 3 0
BBX 3 5 0 0
BITMAP
0460
0550
0830
3700
5500
ENDCHAR
STARTCHAR zero
ENCODING 48
SWIDTH 306 0
DWIDTH 3 0
BBX 3 5 0 0
BITMAP
4B70
5590
5590
5590
4A70
ENDCHAR
STARTCHAR one
ENCODING 49
SWIDTH 306 0
DWIDTH 3 0
BBX 3 5 0 0
BITMAP
3660
3660
0460
0460
0460
ENDCHAR
STARTCHAR two
ENCODING 50
SWIDTH 299 0
DWIDTH 3 0
BBX 3 5 0 0
BITMAP
4C70
0570
1660
4510
7B90
ENDCHAR
STARTCHAR three
ENCODING 51
SWIDTH 324 0
DWIDTH 4 0
BBX 4 5 0 0
BITMAP
4A80
1143
0141
3343
3671
ENDCHAR
STARTCHAR four
ENCODING 52
SWIDTH 339 0
DWIDTH 4 0
BBX 4 5 0 0
BITMAP
0560
1740
3422
4555
4555
ENDCHAR
STARTCHAR five
ENCODING 53
SWIDTH 363 0
DWIDTH 4 0
BBX 4 5 0 0
BITMAP
2AA4
1400
2852
1355
1992
ENDCHAR
STARTCHAR six
ENCODING 54
SWIDTH 306 0
DWIDTH 3 0
BBX 3 5 0 0
BITMAP
4A70
5540
5640
5670
4A80
ENDCHAR
STARTCHAR seven
ENCODING 55
SWIDTH 298 0
DWIDTH 3 0
BBX 3 5 0 0
BITMAP
3550
3660
0550
0550
0820
ENDCHAR
STARTCHAR eight
ENCODING 56
SWIDTH 306 0
DWIDTH 3 0
BBX 3 5 0 0
BITMAP
4B70
5780
5370
5770
4A70
ENDCHAR
STARTCHAR nine
ENCODING 57
SWIDTH 306 0
DWIDTH 3 0
BBX 3 5 0 0
BITMAP
4B70
6490
2490
2290
4A70
ENDCHAR
STARTCHAR colon
ENCODING 58
SWIDTH 176 0
DWIDTH 2 0
BBX 2 3 0 0
BITMAP
55
00
55
ENDCHAR
STARTCHAR semicolon
ENCODING 59
SWIDTH 217 0
DWIDTH 2 0
BBX 2 4 0 -1
BITMAP
28
00
46
22
ENDCHAR
STARTCHAR less
ENCODING 60
SWIDTH 450 0
DWIDTH 5 0
BBX 5 5 0 0
BITMAP
000130
005730
255400
057620
001640
ENDCHAR
STARTCHAR equal
ENCODING 61
SWIDTH 344 0
DWIDTH 4 0
BBX 4 4 0 0
BITMAP
3552
3552
3552
3552
ENDCHAR
STARTCHAR greater
ENCODING 62
SWIDTH 450 0
DWIDTH 5 0
BBX 5 5 0 0
BITMAP
310000
375000
036720
366200
450000
ENDCHAR
STARTCHAR question
ENCODING 63
SWIDTH 346 0
DWIDTH 4 0
BBX 4 5 0 0
BITMAP
2AA1
3373
0661
0440
0330
ENDCHAR
STARTCHAR at
ENCODING 64
SWIDTH 490 0
DWIDTH 5 0
BBX 5 5 0 0
BITMAP
068720
464670
573770
465740
069700
ENDCHAR
STARTCHAR A
ENCODING 65
SWIDTH 798 0
DWIDTH 9 0
BBX 9 10 0 0
BITMAP
0006830000
0018660000
0056582000
0057755000
0187286000
0565068200
0576565500
0874548600
4655546810
5740005550
ENDCHAR
STARTCHAR B
ENCODING 66
SWIDTH 784 0
DWIDTH 9 0
BBX 9 10 0 0
BITMAP
5565556100
5565554500
5565566600
555000A600
5565556600
5565555620
5550005640
5550005730
5575556800
558AAA9200
ENDCHAR
STARTCHAR C
ENCODING 67
SWIDTH 776 0
DWIDTH 9 0
BBX 9 10 0 0
BITMAP
004ABB9400
0595565710
2962004100
5650000000
5820000000
5820000000
5550000000
2862004000
0585565610
004ABB9400
ENDCHAR
STARTCHAR D
ENCODING 68
SWIDTH 806 0
DWIDTH 9 0
BBX 9 10 0 0
BITMAP
5565563000
5565544400
5565556510
5550026550
5550005550
5550004650
5550005650
5550026A10
556555A400
558AAA3000
ENDCHAR
STARTCHAR E
ENCODING 69
SWIDTH 677 0
DWIDTH 7 0
BBX 8 10 0 0
BITMAP
55655551
55655551
55655551
55500000
55655530
558BBB50
55500000
55500000
55655551
558AAAA1
ENDCHAR
STARTCHAR F
ENCODING 70
SWIDTH 677 0
DWIDTH 7 0
BBX 8 10 0 0
BITMAP
55666661
55666661
55666661
55500000
55666630
558BBB50
55500000
55500000
55500000
55500000
ENDCHAR
STARTCHAR G
ENCODING 71
SWIDTH 872 0
DWIDTH 10 0
BBX 10 10 0 0
BITMAP
004ABBA400
0595556950
2962003720
5650000000
5820055551
5820055551
5550055551
2862004671
0585555940
004ABA9400
ENDCHAR
STARTCHAR H
ENCODING 72
SWIDTH 781 0
DWIDTH 9 0
BBX 9 10 0 0
BITMAP
5550005910
5550005910
5550005910
5550005910
5566655910
558BBA5910
5550005910
5550005910
5550005910
5550005910
ENDCHAR
STARTCHAR I
ENCODING 73
SWIDTH 262 0
DWIDTH 3 0
BBX 3 10 0 0
BITMAP
5550
5550
5550
5550
5550
5550
5550
5550
5550
5550
ENDCHAR
STARTCHAR J
ENCODING 74
SWIDTH 674 0
DWIDTH 7 0
BBX 7 10 0 0
BITMAP
00000870
00000870
00000870
00000870
00000870
00000870
47100870
57402760
39565930
04AAB500
ENDCHAR
STARTCHAR K
ENCODING 75
SWIDTH 739 0
DWIDTH 8 0
BBX 8 10 0 0
BITMAP
55500666
55504771
55507740
55536600
55675100
55977100
55567600
55517740
55504771
55500666
ENDCHAR
STARTCHAR L
ENCODING 76
SWIDTH 604 0
DWIDTH 7 0
BBX 7 10 0 0
BITMAP
55500000
55500000
55500000
55500000
55500000
55500000
55500000
55500000
55655530
558AAA50
ENDCHAR
STARTCHAR M
ENCODING 77
SWIDTH 909 0
DWIDTH 10 0
BBX 10 10 0 0
BITMAP
5550000655
5573004755
5577106755
5567656655
5576677655
5555663555
5550630555
5550310555
5550000555
5550000555
ENDCHAR
STARTCHAR N
ENCODING 78
SWIDTH 796 0
DWIDTH 9 0
BBX 9 10 0 0
BITMAP
5560005730
5574005730
5577005730
5566605730
5567725730
5555765730
5550675730
5550375730
5550065730
5550015730
ENDCHAR
STARTCHAR O
ENCODING 79
SWIDTH 894 0
DWIDTH 10 0
BBX 10 10 0 0
BITMAP
004ABBA300
0595555930
2962003680
5650000564
5820000555
5820000555
5550000564
2862003680
0585555830
004ABB9300
ENDCHAR
STARTCHAR P
ENCODING 80
SWIDTH 743 0
DWIDTH 8 0
BBX 8 10 0 0
BITMAP
55655561
55655545
55655666
555000A6
55655565
55655540
55500000
55500000
55500000
55500000
ENDCHAR
STARTCHAR Q
ENCODING 81
SWIDTH 911 0
DWIDTH 10 0
BBX 10 10 0 0
BITMAP
004ABBA300
0595555A30
2962003680
5650000674
5820000555
5820001565
5550005755
2862017771
0585564774
004ABB8362
ENDCHAR
STARTCHAR R
ENCODING 82
SWIDTH 745 0
DWIDTH 8 0
BBX 8 10 0 0
BITMAP
55655561
55655545
55655666
555000A6
55655565
55655540
55505550
55502860
55500673
55500565
ENDCHAR
STARTCHAR S
ENCODING 83
SWIDTH 660 0
DWIDTH 7 0
BBX 7 10 0 0
BITMAP
04BBC600
39555750
57401520
57751000
26776500
02667660
00016760
14200780
57556850
05BBB700
ENDCHAR
STARTCHAR T
ENCODING 84
SWIDTH 641 0
DWIDTH 7 0
BBX 7 10 0 0
BITMAP
55555550
55555550
44555440
00555000
00555000
00555000
00555000
00555000
00555000
00555000
ENDCHAR
STARTCHAR U
ENCODING 85
SWIDTH 702 0
DWIDTH 8 0
BBX 8 10 0 0
BITMAP
55500583
55500583
55500583
55500583
55500583
55500583
55500582
47500690
09666760
029AB700
ENDCHAR
STARTCHAR V
ENCODING 86
SWIDTH 758 0
DWIDTH 8 0
BBX 8 10 0 0
BITMAP
57400088
56500475
18700574
06820880
05654750
02864740
00783800
00565500
00475000
00088000
ENDCHAR
STARTCHAR W
ENCODING 87
SWIDTH 972 0
DWIDTH 11 0
BBX 11 10 0 0
BITMAP
583055505550
555058205810
375087308700
096375646500
069555945500
056483748100
056565556000
028542853000
007800780000
005830582000
ENDCHAR
STARTCHAR X
ENCODING 88
SWIDTH 712 0
DWIDTH 8 0
BBX 8 10 0 0
BITMAP
47600772
06745660
04765720
00676500
00476100
00367400
01757600
05656740
17713760
66500674
ENDCHAR
STARTCHAR Y
ENCODING 89
SWIDTH 769 0
DWIDTH 8 0
BBX 9 10 0 0
BITMAP
6660027720
1772066500
0576377000
0077574000
0047740000
0003410000
0005820000
0005820000
0005820000
0005820000
ENDCHAR
STARTCHAR Z
ENCODING 90
SWIDTH 708 0
DWIDTH 8 0
BBX 8 10 0 0
BITMAP
05555665
05556770
05557740
00047600
00077300
00566000
01772000
06660000
27735550
667AAA90
ENDCHAR
STARTCHAR bracketleft
ENCODING 91
SWIDTH 320 0
DWIDTH 4 0
BBX 3 6 0 -1
BITMAP
3450
5550
5500
5500
5560
3450
ENDCHAR
STARTCHAR backslash
ENCODING 92
SWIDTH 298 0
DWIDTH 3 0
BBX 3 5 0 0
BITMAP
5500
3700
0830
0550
0460
ENDCHAR
STARTCHAR bracketright
ENCODING 93
SWIDTH 320 0
DWIDTH 4 0
BBX 3 6 0 -1
BITMAP
2460
2490
0190
0190
3590
2460
ENDCHAR
STARTCHAR asciicircum
ENCODING 94
SWIDTH 309 0
DWIDTH 3 0
BBX 3 2 0 3
BITMAP
0610
3660
ENDCHAR
STARTCHAR underscore
ENCODING 95
SWIDTH 472 0
DWIDTH 5 0
BBX 5 2 0 0
BITMAP
255530
255530
ENDCHAR
STARTCHAR grave
ENCODING 96
SWIDTH 195 0
DWIDTH 2 0
BBX 2 1 0 6
BITMAP
24
ENDCHAR
STARTCHAR a
ENCODING 97
SWIDTH 414 0
DWIDTH 5 0
BBX 5 5 0 0
BITMAP
059100
069400
187500
577800
695840
ENDCHAR
STARTCHAR b
ENCODING 98
SWIDTH 423 0
DWIDTH 5 0
BBX 5 5 0 0
BITMAP
585700
585530
585920
550540
5AA910
ENDCHAR
STARTCHAR c
ENCODING 99
SWIDTH 446 0
DWIDTH 5 0
BBX 5 5 0 0
BITMAP
07B920
560100
550000
560100
07A920
ENDCHAR
STARTCHAR d
ENCODING 100
SWIDTH 450 0
DWIDTH 5 0
BBX 5 5 0 0
BITMAP
585600
586350
550550
550650
5AB800
ENDCHAR
STARTCHAR e
ENCODING 101
SWIDTH 363 0
DWIDTH 4 0
BBX 4 5 0 0
BITMAP
5854
5854
5852
5500
5AA8
ENDCHAR
STARTCHAR f
ENCODING 102
SWIDTH 365 0
DWIDTH 4 0
BBX 4 5 0 0
BITMAP
5854
5854
5852
5500
5500
ENDCHAR
STARTCHAR g
ENCODING 103
SWIDTH 483 0
DWIDTH 5 0
BBX 5 5 0 0
BITMAP
07BA30
560300
550550
560450
07A930
ENDCHAR
STARTCHAR h
ENCODING 104
SWIDTH 428 0
DWIDTH 5 0
BBX 5 5 0 0
BITMAP
550640
550640
585740
550640
550640
ENDCHAR
STARTCHAR i
ENCODING 105
SWIDTH 176 0
DWIDTH 2 0
BBX 2 5 0 0
BITMAP
55
55
55
55
55
ENDCHAR
STARTCHAR j
ENCODING 106
SWIDTH 390 0
DWIDTH 4 0
BBX 4 5 0 0
BITMAP
0037
0037
0037
2346
39A3
ENDCHAR
STARTCHAR k
ENCODING 107
SWIDTH 381 0
DWIDTH 4 0
BBX 4 5 0 0
BITMAP
5566
5683
5880
5971
5566
ENDCHAR
STARTCHAR l
ENCODING 108
SWIDTH 330 0
DWIDTH 4 0
BBX 4 5 0 0
BITMAP
5500
5500
5500
5500
5AA5
ENDCHAR
STARTCHAR m
ENCODING 109
SWIDTH 501 0
DWIDTH 6 0
BBX 6 5 0 0
BITMAP
590491
587791
577791
554091
550091
ENDCHAR
STARTCHAR n
ENCODING 110
SWIDTH 444 0
DWIDTH 5 0
BBX 5 5 0 0
BITMAP
590550
585550
587750
556750
551850
ENDCHAR
STARTCHAR o
ENCODING 111
SWIDTH 494 0
DWIDTH 5 0
BBX 6 5 0 0
BITMAP
07BA20
560380
550081
560380
07A920
ENDCHAR
STARTCHAR p
ENCODING 112
SWIDTH 412 0
DWIDTH 5 0
BBX 5 5 0 0
BITMAP
585710
585620
585600
550000
550000
ENDCHAR
STARTCHAR q
ENCODING 113
SWIDTH 494 0
DWIDTH 5 0
BBX 6 5 0 0
BITMAP
07BA20
560380
550191
560690
07AB60
ENDCHAR
STARTCHAR r
ENCODING 114
SWIDTH 412 0
DWIDTH 5 0
BBX 5 5 0 0
BITMAP
585710
585620
587800
555500
553800
ENDCHAR
STARTCHAR s
ENCODING 115
SWIDTH 379 0
DWIDTH 4 0
BBX 4 5 0 0
BITMAP
2AB4
5650
4526
0385
49A4
ENDCHAR
STARTCHAR t
ENCODING 116
SWIDTH 349 0
DWIDTH 4 0
BBX 4 5 0 0
BITMAP
5554
5774
0550
0550
0550
ENDCHAR
STARTCHAR u
ENCODING 117
SWIDTH 400 0
DWIDTH 4 0
BBX 4 5 0 0
BITMAP
5518
5518
5518
5528
19A4
ENDCHAR
STARTCHAR v
ENCODING 118
SWIDTH 394 0
DWIDTH 4 0
BBX 5 5 0 0
BITMAP
651810
555600
285500
079300
059000
ENDCHAR
STARTCHAR w
ENCODING 119
SWIDTH 521 0
DWIDTH 6 0
BBX 6 5 0 0
BITMAP
645655
558764
479791
196870
067680
ENDCHAR
STARTCHAR x
ENCODING 120
SWIDTH 369 0
DWIDTH 4 0
BBX 4 5 0 0
BITMAP
6666
1792
0870
2883
6666
ENDCHAR
STARTCHAR y
ENCODING 121
SWIDTH 422 0
DWIDTH 5 0
BBX 5 5 0 0
BITMAP
662730
179600
046200
037000
037000
ENDCHAR
STARTCHAR z
ENCODING 122
SWIDTH 409 0
DWIDTH 5 0
BBX 5 5 0 0
BITMAP
355500
004500
037300
175000
8CAA10
ENDCHAR
STARTCHAR braceleft
ENCODING 123
SWIDTH 443 0
DWIDTH 5 0
BBX 5 6 0 -1
BITMAP
016420
018420
248000
248000
018420
016420
ENDCHAR
STARTCHAR bar
ENCODING 124
SWIDTH 196 0
DWIDTH 2 0
BBX 2 6 0 0
BITMAP
22
55
55
55
55
55
ENDCHAR
STARTCHAR braceright
ENCODING 125
SWIDTH 506 0
DWIDTH 6 0
BBX 4 6 1 -1
BITMAP
4530
4650
0555
0555
4750
4530
ENDCHAR
STARTCHAR asciitilde
ENCODING 126
SWIDTH 450 0
DWIDTH 5 0
BBX 5 2 0 1
BITMAP
113510
113510
ENDCHAR
STARTCHAR uni00A0
ENCODING 160
SWIDTH 280 0
DWIDTH 3 0
BBX 1 1 0 0
BITMAP
00
ENDCHAR
STARTCHAR exclamdown
ENCODING 161
SWIDTH 196 0
DWIDTH 2 0
BBX 2 5 0 -1
BITMAP
55
33
55
55
55
ENDCHAR
STARTCHAR cent
ENCODING 162
SWIDTH 305 0
DWIDTH 3 0
BBX 4 6 0 -1
BITMAP
0440
2750
8200
7661
2650
0440
ENDCHAR
STARTCHAR sterling
ENCODING 163
SWIDTH 408 0
DWIDTH 4 0
BBX 5 5 0 0
BITMAP
4CA200
768200
566100
220000
ABBB20
ENDCHAR
STARTCHAR currency
ENCODING 164
SWIDTH 401 0
DWIDTH 4 0
BBX 4 5 0 0
BITMAP
0202
3665
0754
3564
0303
ENDCHAR
STARTCHAR yen
ENCODING 165
SWIDTH 423 0
DWIDTH 5 0
BBX 5 5 0 0
BITMAP
661740
179600
046200
257400
257400
ENDCHAR
STARTCHAR brokenbar
ENCODING 166
SWIDTH 196 0
DWIDTH 2 0
BBX 2 6 0 0
BITMAP
11
55
55
11
55
55
ENDCHAR
STARTCHAR section
ENCODING 167
SWIDTH 322 0
DWIDTH 4 0
BBX 4 6 0 -1
BITMAP
0300
6760
5972
3880
3582
2540
ENDCHAR
STARTCHAR dieresis
ENCODING 168
SWIDTH 287 0
DWIDTH 3 0
BBX 3 1 0 6
BITMAP
5370
ENDCHAR
STARTCHAR copyright
ENCODING 169
SWIDTH 493 0
DWIDTH 5 0
BBX 6 6 0 0
BITMAP
045500
330060
516351
551051
346460
035500
ENDCHAR
STARTCHAR ordfeminine
ENCODING 170
SWIDTH 331 0
DWIDTH 4 0
BBX 3 2 0 2
BITMAP
0A50
4780
ENDCHAR
STARTCHAR guillemotleft
ENCODING 171
SWIDTH 298 0
DWIDTH 3 0
BBX 3 3 0 1
BITMAP
0220
3450
3450
ENDCHAR
STARTCHAR logicalnot
ENCODING 172
SWIDTH 420 0
DWIDTH 5 0
BBX 5 3 0 0
BITMAP
366610
366610
000720
ENDCHAR
STARTCHAR uni00AD
ENCODING 173
SWIDTH 326 0
DWIDTH 4 0
BBX 3 2 0 2
BITMAP
2550
2550
ENDCHAR
STARTCHAR registered
ENCODING 174
SWIDTH 493 0
DWIDTH 5 0
BBX 6 6 0 0
BITMAP
045500
330060
535551
536651
340160
035500
ENDCHAR
STARTCHAR macron
ENCODING 175
SWIDTH 331 0
DWIDTH 4 0
BBX 3 1 0 6
BITMAP
2550
ENDCHAR
STARTCHAR degree
ENCODING 176
SWIDTH 298 0
DWIDTH 3 0
BBX 3 3 0 2
BITMAP
1630
5360
1630
ENDCHAR
STARTCHAR plusminus
ENCODING 177
SWIDTH 418 0
DWIDTH 5 0
BBX 5 5 0 0
BITMAP
046000
266400
266400
012000
6AAA20
ENDCHAR
STARTCHAR uni00B2
ENCODING 178
SWIDTH 233 0
DWIDTH 3 0
BBX 2 2 0 2
BITMAP
28
48
ENDCHAR
STARTCHAR uni00B3
ENCODING 179
SWIDTH 228 0
DWIDTH 3 0
BBX 2 2 0 2
BITMAP
16
27
ENDCHAR
STARTCHAR acute
ENCODING 180
SWIDTH 195 0
DWIDTH 2 0
BBX 2 1 0 6
BITMAP
24
ENDCHAR
STARTCHAR uni00B5
ENCODING 181
SWIDTH 506 0
DWIDTH 6 0
BBX 6 7 0 -2
BITMAP
550910
550910
550910
551900
56A681
550000
220000
ENDCHAR
STARTCHAR paragraph
ENCODING 182
SWIDTH 435 0
DWIDTH 5 0
BBX 5 5 0 0
BITMAP
465510
567720
365640
005640
005640
ENDCHAR
STARTCHAR periodcentered
ENCODING 183
SWIDTH 176 0
DWIDTH 2 0
BBX 2 1 0 2
BITMAP
55
ENDCHAR
STARTCHAR cedilla
ENCODING 184
SWIDTH 261 0
DWIDTH 3 0
BBX 3 3 0 -2
BITMAP
0100
1820
2520
ENDCHAR
STARTCHAR uni00B9
ENCODING 185
SWIDTH 218 0
DWIDTH 2 0
BBX 2 2 0 2
BITMAP
37
07
ENDCHAR
STARTCHAR ordmasculine
ENCODING 186
SWIDTH 335 0
DWIDTH 4 0
BBX 4 2 0 2
BITMAP
3881
3881
ENDCHAR
STARTCHAR guillemotright
ENCODING 187
SWIDTH 298 0
DWIDTH 3 0
BBX 3 3 0 1
BITMAP
2110
3440
3350
ENDCHAR
STARTCHAR onequarter
ENCODING 188
SWIDTH 429 0
DWIDTH 5 0
BBX 5 6 0 -1
BITMAP
210100
071700
065300
026700
062730
010110
ENDCHAR
STARTCHAR onehalf
ENCODING 189
SWIDTH 437 0
DWIDTH 5 0
BBX 5 6 0 0
BITMAP
110100
272600
076200
026420
062420
140420
ENDCHAR
STARTCHAR threequarters
ENCODING 190
SWIDTH 409 0
DWIDTH 5 0
BBX 5 6 0 -1
BITMAP
231400
154300
347000
044600
173630
110110
ENDCHAR
STARTCHAR questiondown
ENCODING 191
SWIDTH 346 0
DWIDTH 4 0
BBX 4 5 0 -1
BITMAP
0330
0440
3630
5652
1650
ENDCHAR
STARTCHAR Agrave
ENCODING 192
SWIDTH 798 0
DWIDTH 9 0
BBX 9 14 0 0
BITMAP
0033000000
0017300000
0005600000
0000000000
0006830000
0018660000
0056582000
0057755000
0187286000
0565068200
0576565500
0874548600
4655546810
5740005550
ENDCHAR
STARTCHAR Aacute
ENCODING 193
SWIDTH 798 0
DWIDTH 9 0
BBX 9 14 0 0
BITMAP
0000032000
0000471000
0000650000
0000000000
0006830000
0018660000
0056582000
0057755000
0187286000
0565068200
0576565500
0874548600
4655546810
5740005550
ENDCHAR
STARTCHAR Acircumflex
ENCODING 194
SWIDTH 798 0
DWIDTH 9 0
BBX 9 14 0 0
BITMAP
0003300000
0027560000
0066273000
0000000000
0006830000
0018660000
0056582000
0057755000
0187286000
0565068200
0576565500
0874548600
4655546810
5740005550
ENDCHAR
STARTCHAR Atilde
ENCODING 195
SWIDTH 798 0
DWIDTH 9 0
BBX 9 12 0 0
BITMAP
0035303000
0030462000
0006830000
0018660000
0056582000
0057755000
0187286000
0565068200
0576565500
0874548600
4655546810
5740005550
ENDCHAR
STARTCHAR Adieresis
ENCODING 196
SWIDTH 798 0
DWIDTH 9 0
BBX 9 13 0 0
BITMAP
0065065000
0246236000
0065065000
0006830000
0018660000
0056582000
0057755000
0187286000
0565068200
0576565500
0874548600
4655546810
5740005550
ENDCHAR
STARTCHAR Aring
ENCODING 197
SWIDTH 798 0
DWIDTH 9 0
BBX 9 13 0 0
BITMAP
0004720000
0006060000
0003720000
0006830000
0018660000
0056582000
0057755000
0187286000
0565068200
0576565500
0874548600
4655546810
5740005550
ENDCHAR
STARTCHAR AE
ENCODING 198
SWIDTH 1078 0
DWIDTH 12 0
BBX 12 10 0 0
BITMAP
000037555553
000058555553
000429655553
000658700000
003666945550
00675597BBA0
027705730000
066555540000
277556550000
66500466AAA5
ENDCHAR
STARTCHAR Ccedilla
ENCODING 199
SWIDTH 776 0
DWIDTH 9 0
BBX 9 13 0 -3
BITMAP
004ABB9400
0595565710
2962004100
5650000000
5820000000
5820000000
5550000000
2862004000
0585565610
004ADB9400
0004730000
0001060000
0004620000
ENDCHAR
STARTCHAR Egrave
ENCODING 200
SWIDTH 677 0
DWIDTH 7 0
BBX 8 14 0 0
BITMAP
00032000
00056000
00017400
00000000
55655551
55655551
55655551
55500000
55655530
558BBB50
55500000
55500000
55655551
558AAAA1
ENDCHAR
STARTCHAR Eacute
ENCODING 201
SWIDTH 677 0
DWIDTH 7 0
BBX 8 14 0 0
BITMAP
00003300
00037100
00065000
00000000
55655551
55655551
55655551
55500000
55655530
558BBB50
55500000
55500000
55655551
558AAAA1
ENDCHAR
STARTCHAR Ecircumflex
ENCODING 202
SWIDTH 677 0
DWIDTH 7 0
BBX 8 14 0 0
BITMAP
00033000
00375500
00753720
00000000
55655551
55655551
55655551
55500000
55655530
558BBB50
55500000
55500000
55655551
558AAAA1
ENDCHAR
STARTCHAR Edieresis
ENCODING 203
SWIDTH 677 0
DWIDTH 7 0
BBX 8 13 0 0
BITMAP
00641640
04264260
00641640
55655551
55655551
55655551
55500000
55655530
558BBB50
55500000
55500000
55655551
558AAAA1
ENDCHAR
STARTCHAR Igrave
ENCODING 204
SWIDTH 262 0
DWIDTH 3 0
BBX 4 14 -1 0
BITMAP
3300
2730
0660
0000
0555
0555
0555
0555
0555
0555
0555
0555
0555
0555
ENDCHAR
STARTCHAR Iacute
ENCODING 205
SWIDTH 262 0
DWIDTH 3 0
BBX 4 14 0 0
BITMAP
0042
0570
0740
0000
5550
5550
5550
5550
5550
5550
5550
5550
5550
5550
ENDCHAR
STARTCHAR Icircumflex
ENCODING 206
SWIDTH 262 0
DWIDTH 3 0
BBX 5 14 -1 0
BITMAP
033000
176600
662740
000000
055500
055500
055500
055500
055500
055500
055500
055500
055500
055500
ENDCHAR
STARTCHAR Idieresis
ENCODING 207
SWIDTH 262 0
DWIDTH 3 0
BBX 6 13 -2 0
BITMAP
065065
156246
055065
005550
005550
005550
005550
005550
005550
005550
005550
005550
005550
ENDCHAR
STARTCHAR Eth
ENCODING 208
SWIDTH 856 0
DWIDTH 9 0
BBX 10 10 0 0
BITMAP
0874556100
0874563600
0874566450
0330006750
5555300781
ABBB500591
0330000790
0870006760
0874566A00
0877AB8100
ENDCHAR
STARTCHAR Ntilde
ENCODING 209
SWIDTH 796 0
DWIDTH 9 0
BBX 9 12 0 0
BITMAP
0035303000
0030461000
5560005730
5574005730
5577005730
5566605730
5567725730
5555765730
5550675730
5550375730
5550065730
5550015730
ENDCHAR
STARTCHAR Ograve
ENCODING 210
SWIDTH 894 0
DWIDTH 10 0
BBX 10 14 0 0
BITMAP
0003300000
0005600000
0000740000
0000000000
004ABBA300
0595555930
2962003680
5650000564
5820000555
5820000555
5550000564
2862003680
0585555830
004ABB9300
ENDCHAR
STARTCHAR Oacute
ENCODING 211
SWIDTH 894 0
DWIDTH 10 0
BBX 10 14 0 0
BITMAP
0000033000
0000173000
0000660000
0000000000
004ABBA300
0595555930
2962003680
5650000564
5820000555
5820000555
5550000564
2862003680
0585555830
004ABB9300
ENDCHAR
STARTCHAR Ocircumflex
ENCODING 212
SWIDTH 894 0
DWIDTH 10 0
BBX 10 14 0 0
BITMAP
0001420000
0006752000
0037266000
0000000000
004ABBA300
0595555930
2962003680
5650000564
5820000555
5820000555
5550000564
2862003680
0585555830
004ABB9300
ENDCHAR
STARTCHAR Otilde
ENCODING 213
SWIDTH 894 0
DWIDTH 10 0
BBX 10 12 0 0
BITMAP
0006503000
0012165000
004ABBA300
0595555930
2962003680
5650000564
5820000555
5820000555
5550000564
2862003680
0585555830
004ABB9300
ENDCHAR
STARTCHAR Odieresis
ENCODING 214
SWIDTH 894 0
DWIDTH 10 0
BBX 10 13 0 0
BITMAP
0036236200
0060660600
0036236200
004ABBA300
0595555930
2962003680
5650000564
5820000555
5820000555
5550000564
2862003680
0585555830
004ABB9300
ENDCHAR
STARTCHAR multiply
ENCODING 215
SWIDTH 370 0
DWIDTH 4 0
BBX 4 4 0 0
BITMAP
1440
2573
2753
0220
ENDCHAR
STARTCHAR Oslash
ENCODING 216
SWIDTH 894 0
DWIDTH 10 0
BBX 10 10 0 0
BITMAP
004ABB3850
0495556750
1962039651
5650194564
5823756555
573A812555
558A200564
24D4003680
0960555930
0205AA9300
ENDCHAR
STARTCHAR Ugrave
ENCODING 217
SWIDTH 702 0
DWIDTH 8 0
BBX 8 14 0 0
BITMAP
00410000
00660000
00272000
00000000
55500583
55500583
55500583
55500583
55500583
55500583
55500582
47500690
09666760
029AB700
ENDCHAR
STARTCHAR Uacute
ENCODING 218
SWIDTH 702 0
DWIDTH 8 0
BBX 8 14 0 0
BITMAP
00003300
00007400
00056000
00000000
55500583
55500583
55500583
55500583
55500583
55500583
55500582
47500690
09666760
029AB700
ENDCHAR
STARTCHAR Ucircumflex
ENCODING 219
SWIDTH 702 0
DWIDTH 8 0
BBX 8 14 0 0
BITMAP
00142000
00666200
04726600
00000000
55500583
55500583
55500583
55500583
55500583
55500583
55500582
47500690
09666760
029AB700
ENDCHAR
STARTCHAR Udieresis
ENCODING 220
SWIDTH 702 0
DWIDTH 8 0
BBX 8 13 0 0
BITMAP
03613610
06066060
03613610
55500583
55500583
55500583
55500583
55500583
55500583
55500582
47500690
09666760
029AB700
ENDCHAR
STARTCHAR Yacute
ENCODING 221
SWIDTH 769 0
DWIDTH 8 0
BBX 9 14 0 0
BITMAP
0000240000
0000660000
0002720000
0000000000
6660027720
1772066500
0576377000
0077574000
0047740000
0003410000
0005820000
0005820000
0005820000
0005820000
ENDCHAR
STARTCHAR Thorn
ENCODING 222
SWIDTH 743 0
DWIDTH 8 0
BBX 8 10 0 0
BITMAP
55500000
55500000
55655550
55655655
55500096
55655666
55655554
55655540
55500000
55500000
ENDCHAR
STARTCHAR germandbls
ENCODING 223
SWIDTH 424 0
DWIDTH 5 0
BBX 5 5 0 0
BITMAP
365700
555610
554910
550540
55A910
ENDCHAR
STARTCHAR agrave
ENCODING 224
SWIDTH 414 0
DWIDTH 5 0
BBX 5 7 0 0
BITMAP
033000
000000
059100
069400
187500
577800
695840
ENDCHAR
STARTCHAR aacute
ENCODING 225
SWIDTH 414 0
DWIDTH 5 0
BBX 5 7 0 0
BITMAP
005100
000000
059100
069400
187500
577800
695840
ENDCHAR
STARTCHAR acircumflex
ENCODING 226
SWIDTH 414 0
DWIDTH 5 0
BBX 5 7 0 0
BITMAP
055100
000000
059100
069400
187500
577800
695840
ENDCHAR
STARTCHAR atilde
ENCODING 227
SWIDTH 414 0
DWIDTH 5 0
BBX 5 6 0 0
BITMAP
014200
059100
069400
187500
577800
695840
ENDCHAR
STARTCHAR adieresis
ENCODING 228
SWIDTH 414 0
DWIDTH 5 0
BBX 5 7 0 0
BITMAP
084400
000000
059100
069400
187500
577800
695840
ENDCHAR
STARTCHAR aring
ENCODING 229
SWIDTH 414 0
DWIDTH 5 0
BBX 5 7 0 0
BITMAP
025000
025000
059100
069400
187500
577800
695840
ENDCHAR
STARTCHAR ae
ENCODING 230
SWIDTH 593 0
DWIDTH 7 0
BBX 7 5 0 0
BITMAP
006B5520
03895520
06B85500
38590000
6959BA30
ENDCHAR
STARTCHAR ccedilla
ENCODING 231
SWIDTH 446 0
DWIDTH 5 0
BBX 5 7 0 -2
BITMAP
07B920
560100
550000
560100
07B920
008300
015300
ENDCHAR
STARTCHAR egrave
ENCODING 232
SWIDTH 363 0
DWIDTH 4 0
BBX 4 7 0 0
BITMAP
0330
0000
5854
5854
5852
5500
5AA8
ENDCHAR
STARTCHAR eacute
ENCODING 233
SWIDTH 363 0
DWIDTH 4 0
BBX 4 7 0 0
BITMAP
0051
0000
5854
5854
5852
5500
5AA8
ENDCHAR
STARTCHAR ecircumflex
ENCODING 234
SWIDTH 363 0
DWIDTH 4 0
BBX 4 7 0 0
BITMAP
0541
0000
5854
5854
5852
5500
5AA8
ENDCHAR
STARTCHAR edieresis
ENCODING 235
SWIDTH 363 0
DWIDTH 4 0
BBX 4 7 0 0
BITMAP
0853
0000
5854
5854
5852
5500
5AA8
ENDCHAR
STARTCHAR igrave
ENCODING 236
SWIDTH 176 0
DWIDTH 2 0
BBX 2 7 0 0
BITMAP
60
00
55
55
55
55
55
ENDCHAR
STARTCHAR iacute
ENCODING 237
SWIDTH 176 0
DWIDTH 2 0
BBX 2 7 0 0
BITMAP
06
00
55
55
55
55
55
ENDCHAR
STARTCHAR icircumflex
ENCODING 238
SWIDTH 176 0
DWIDTH 2 0
BBX 2 7 0 0
BITMAP
64
00
55
55
55
55
55
ENDCHAR
STARTCHAR idieresis
ENCODING 239
SWIDTH 176 0
DWIDTH 2 0
BBX 2 7 0 0
BITMAP
88
00
55
55
55
55
55
ENDCHAR
STARTCHAR eth
ENCODING 240
SWIDTH 455 0
DWIDTH 5 0
BBX 5 5 0 0
BITMAP
575600
465450
551550
440650
5AA900
ENDCHAR
STARTCHAR ntilde
ENCODING 241
SWIDTH 444 0
DWIDTH 5 0
BBX 5 6 0 0
BITMAP
013300
590550
585550
587750
556750
551850
ENDCHAR
STARTCHAR ograve
ENCODING 242
SWIDTH 494 0
DWIDTH 5 0
BBX 6 7 0 0
BITMAP
006000
000000
07BA20
560380
550081
560380
07A920
ENDCHAR
STARTCHAR oacute
ENCODING 243
SWIDTH 494 0
DWIDTH 5 0
BBX 6 7 0 0
BITMAP
002300
000000
07BA20
560380
550081
560380
07A920
ENDCHAR
STARTCHAR ocircumflex
ENCODING 244
SWIDTH 494 0
DWIDTH 5 0
BBX 6 7 0 0
BITMAP
025400
000000
07BA20
560380
550081
560380
07A920
ENDCHAR
STARTCHAR otilde
ENCODING 245
SWIDTH 494 0
DWIDTH 5 0
BBX 6 6 0 0
BITMAP
011400
07BA20
560380
550081
560380
07A920
ENDCHAR
STARTCHAR odieresis
ENCODING 246
SWIDTH 494 0
DWIDTH 5 0
BBX 6 7 0 0
BITMAP
035800
000000
07BA20
560380
550081
560380
07A920
ENDCHAR
STARTCHAR divide
ENCODING 247
SWIDTH 418 0
DWIDTH 5 0
BBX 5 5 0 0
BITMAP
015000
014000
355510
355510
016000
ENDCHAR
STARTCHAR oslash
ENCODING 248
SWIDTH 494 0
DWIDTH 5 0
BBX 6 5 0 0
BITMAP
07B360
560770
556181
562380
358920
ENDCHAR
STARTCHAR ugrave
ENCODING 249
SWIDTH 400 0
DWIDTH 4 0
BBX 4 7 0 0
BITMAP
0420
0000
5518
5518
5518
5528
19A4
ENDCHAR
STARTCHAR uacute
ENCODING 250
SWIDTH 400 0
DWIDTH 4 0
BBX 4 7 0 0
BITMAP
0060
0000
5518
5518
5518
5528
19A4
ENDCHAR
STARTCHAR ucircumflex
ENCODING 251
SWIDTH 400 0
DWIDTH 4 0
BBX 4 7 0 0
BITMAP
0540
0000
5518
5518
5518
5528
19A4
ENDCHAR
STARTCHAR udieresis
ENCODING 252
SWIDTH 400 0
DWIDTH 4 0
BBX 4 7 0 0
BITMAP
0862
0000
5518
5518
5518
5528
19A4
ENDCHAR
STARTCHAR yacute
ENCODING 253
SWIDTH 422 0
DWIDTH 5 0
BBX 5 7 0 0
BITMAP
005000
000000
662730
179600
046200
037000
037000
ENDCHAR
STARTCHAR thorn
ENCODING 254
SWIDTH 412 0
DWIDTH 5 0
BBX 5 5 0 0
BITMAP
550000
586600
586620
586700
550000
ENDCHAR
STARTCHAR ydieresis
ENCODING 255
SWIDTH 422 0
DWIDTH 5 0
BBX 5 7 0 0
BITMAP
084400
000000
662730
179600
046200
037000
037000
ENDCHAR
STARTCHAR Edotaccent
ENCODING 278
SWIDTH 677 0
DWIDTH 7 0
BBX 8 11 0 0
BITMAP
00029000
55655551
55655551
55655551
55500000
55655530
558BBB50
55500000
55500000
55655551
558AAAA1
ENDCHAR
STARTCHAR edotaccent
ENCODING 279
SWIDTH 363 0
DWIDTH 4 0
BBX 4 7 0 0
BITMAP
0190
0000
5854
5854
5852
5500
5AA8
ENDCHAR
STARTCHAR dotlessi
ENCODING 305
SWIDTH 176 0
DWIDTH 2 0
BBX 2 5 0 0
BITMAP
55
55
55
55
55
ENDCHAR
STARTCHAR OE
ENCODING 338
SWIDTH 1221 0
DWIDTH 13 0
BBX 14 10 0 0
BITMAP
00465510155550
05355510155550
26655510155550
55610000000000
56400000155530
582000003BBB50
56400000000000
2A610000000000
06955510155550
004AAA103AAAA1
ENDCHAR
STARTCHAR oe
ENCODING 339
SWIDTH 637 0
DWIDTH 7 0
BBX 7 5 0 0
BITMAP
06523540
53523540
55003520
56000000
09A55A80
ENDCHAR
STARTCHAR Wcircumflex
ENCODING 372
SWIDTH 972 0
DWIDTH 11 0
BBX 11 14 0 0
BITMAP
000033000000
000275500000
000762730000
000000000000
583055505550
555058205810
375087308700
096375646500
069555945500
056483748100
056565556000
028542853000
007800780000
005830582000
ENDCHAR
STARTCHAR wcircumflex
ENCODING 373
SWIDTH 521 0
DWIDTH 6 0
BBX 6 7 0 0
BITMAP
015400
000000
645655
558764
479791
196870
067680
ENDCHAR
STARTCHAR Ycircumflex
ENCODING 374
SWIDTH 769 0
DWIDTH 8 0
BBX 9 14 0 0
BITMAP
0003300000
0037550000
0175472000
0000000000
6660027720
1772066500
0576377000
0077574000
0047740000
0003410000
0005820000
0005820000
0005820000
0005820000
ENDCHAR
STARTCHAR ycircumflex
ENCODING 375
SWIDTH 422 0
DWIDTH 5 0
BBX 5 7 0 0
BITMAP
055100
000000
662730
179600
046200
037000
037000
ENDCHAR
STARTCHAR Ydieresis
ENCODING 376
SWIDTH 769 0
DWIDTH 8 0
BBX 9 13 0 0
BITMAP
0164164000
0426516000
0164164000
6660027720
1772066500
0576377000
0077574000
0047740000
0003410000
0005820000
0005820000
0005820000
0005820000
ENDCHAR
STARTCHAR circumflex
ENCODING 710
SWIDTH 298 0
DWIDTH 3 0
BBX 3 1 0 6
BITMAP
2540
ENDCHAR
STARTCHAR dotaccent
ENCODING 729
SWIDTH 212 0
DWIDTH 2 0
BBX 2 1 0 6
BITMAP
38
ENDCHAR
STARTCHAR ring
ENCODING 730
SWIDTH 212 0
DWIDTH 2 0
BBX 2 2 0 5
BITMAP
24
24
ENDCHAR
STARTCHAR tilde
ENCODING 732
SWIDTH 329 0
DWIDTH 4 0
BBX 3 1 0 5
BITMAP
1150
ENDCHAR
STARTCHAR gravecomb
ENCODING 768
SWIDTH 0 0
DWIDTH 0 0
BBX 2 1 0 6
BITMAP
24
ENDCHAR
STARTCHAR acutecomb
ENCODING 769
SWIDTH 0 0
DWIDTH 0 0
BBX 2 1 0 6
BITMAP
24
ENDCHAR
STARTCHAR uni0302
ENCODING 770
SWIDTH 0 0
DWIDTH 0 0
BBX 3 1 0 6
BITMAP
2540
ENDCHAR
STARTCHAR tildecomb
ENCODING 771
SWIDTH 0 0
DWIDTH 0 0
BBX 3 1 0 5
BITMAP
1150
ENDCHAR
STARTCHAR uni0307
ENCODING 775
SWIDTH 0 0
DWIDTH 0 0
BBX 2 1 0 6
BITMAP
38
ENDCHAR
STARTCHAR uni0308
ENCODING 776
SWIDTH 0 0
DWIDTH 0 0
BBX 3 1 0 6
BITMAP
5370
ENDCHAR
STARTCHAR uni030A
ENCODING 778
SWIDTH 0 0
DWIDTH 0 0
BBX 2 2 0 5
BITMAP
24
24
ENDCHAR
STARTCHAR uni0327
ENCODING 807
SWIDTH 0 0
DWIDTH 0 0
BBX 3 3 0 -2
BITMAP
0100
1820
2520
ENDCHAR
STARTCHAR Wgrave
ENCODING 7808
SWIDTH 972 0
DWIDTH 11 0
BBX 11 14 0 0
BITMAP
000033000000
000057000000
000007500000
000000000000
583055505550
555058205810
375087308700
096375646500
069555945500
056483748100
056565556000
028542853000
007800780000
005830582000
ENDCHAR
STARTCHAR wgrave
ENCODING 7809
SWIDTH 521 0
DWIDTH 6 0
BBX 6 7 0 0
BITMAP
004200
000000
645655
558764
479791
196870
067680
ENDCHAR
STARTCHAR Wacute
ENCODING 7810
SWIDTH 972 0
DWIDTH 11 0
BBX 11 14 0 0
BITMAP
000003300000
000037100000
000066000000
000000000000
583055505550
555058205810
375087308700
096375646500
069555945500
056483748100
056565556000
028542853000
007800780000
005830582000
ENDCHAR
STARTCHAR wacute
ENCODING 7811
SWIDTH 521 0
DWIDTH 6 0
BBX 6 7 0 0
BITMAP
004200
000000
645655
558764
479791
196870
067680
ENDCHAR
STARTCHAR Wdieresis
ENCODING 7812
SWIDTH 972 0
DWIDTH 11 0
BBX 11 13 0 0
BITMAP
000650650000
002363360000
000650640000
583055505550
555058205810
375087308700
096375646500
069555945500
056483748100
056565556000
028542853000
007800780000
005830582000
ENDCHAR
STARTCHAR wdieresis
ENCODING 7813
SWIDTH 521 0
DWIDTH 6 0
BBX 6 7 0 0
BITMAP
017800
000000
645655
558764
479791
196870
067680
ENDCHAR
STARTCHAR uni1E9E
ENCODING 7838
SWIDTH 784 0
DWIDTH 9 0
BBX 9 10 0 0
BITMAP
5565555200
5565555200
5564477200
5550476000
5550775300
5555766700
5550006730
5550005730
5553555800
5557AAA300
ENDCHAR
STARTCHAR Ygrave
ENCODING 7922
SWIDTH 769 0
DWIDTH 8 0
BBX 9 14 0 0
BITMAP
0004200000
0006600000
0001730000
0000000000
6660027720
1772066500
0576377000
0077574000
0047740000
0003410000
0005820000
0005820000
0005820000
0005820000
ENDCHAR
STARTCHAR ygrave
ENCODING 7923
SWIDTH 422 0
DWIDTH 5 0
BBX 5 7 0 0
BITMAP
005000
000000
662730
179600
046200
037000
037000
ENDCHAR
STARTCHAR endash
ENCODING 8211
SWIDTH 507 0
DWIDTH 6 0
BBX 5 2 0 2
BITMAP
255550
255550
ENDCHAR
STARTCHAR emdash
ENCODING 8212
SWIDTH 552 0
DWIDTH 6 0
BBX 6 2 0 2
BITMAP
255553
255553
ENDCHAR
STARTCHAR quoteleft
ENCODING 8216
SWIDTH 146 0
DWIDTH 2 0
BBX 2 2 0 3
BITMAP
51
33
ENDCHAR
STARTCHAR quoteright
ENCODING 8217
SWIDTH 146 0
DWIDTH 2 0
BBX 2 2 0 3
BITMAP
45
03
ENDCHAR
STARTCHAR quotesinglbase
ENCODING 8218
SWIDTH 146 0
DWIDTH 2 0
BBX 2 2 0 -2
BITMAP
45
05
ENDCHAR
STARTCHAR quotedblleft
ENCODING 8220
SWIDTH 297 0
DWIDTH 3 0
BBX 3 2 0 3
BITMAP
5250
3350
ENDCHAR
STARTCHAR quotedblright
ENCODING 8221
SWIDTH 297 0
DWIDTH 3 0
BBX 3 2 0 3
BITMAP
4680
0330
ENDCHAR
STARTCHAR quotedblbase
ENCODING 8222
SWIDTH 297 0
DWIDTH 3 0
BBX 3 2 0 -2
BITMAP
4580
0550
ENDCHAR
STARTCHAR bullet
ENCODING 8226
SWIDTH 302 0
DWIDTH 3 0
BBX 3 3 0 1
BITMAP
1640
6060
1640
ENDCHAR
STARTCHAR ellipsis
ENCODING 8230
SWIDTH 528 0
DWIDTH 6 0
BBX 6 1 0 0
BITMAP
555555
ENDCHAR
STARTCHAR guilsinglleft
ENCODING 8249
SWIDTH 178 0
DWIDTH 2 0
BBX 2 3 0 1
BITMAP
02
33
33
ENDCHAR
STARTCHAR guilsinglright
ENCODING 8250
SWIDTH 178 0
DWIDTH 2 0
BBX 2 3 0 1
BITMAP
20
33
32
ENDCHAR
STARTCHAR fraction
ENCODING 8260
SWIDTH 362 0
DWIDTH 4 0
BBX 4 5 0 0
BITMAP
0056
0272
0560
2720
5600
ENDCHAR
STARTCHAR uni2074
ENCODING 8308
SWIDTH 204 0
DWIDTH 2 0
BBX 2 2 0 2
BITMAP
35
57
ENDCHAR
STARTCHAR Euro
ENCODING 8364
SWIDTH 462 0
DWIDTH 5 0
BBX 5 5 0 0
BITMAP
06BA30
251100
553000
151210
05B930
ENDCHAR
STARTCHAR trademark
ENCODING 8482
SWIDTH 461 0
DWIDTH 5 0
BBX 5 3 0 2
BITMAP
CC6550
235650
001010
ENDCHAR
STARTCHAR minus
ENCODING 8722
SWIDTH 420 0
DWIDTH 5 0
BBX 5 1 0 1
BITMAP
7DDD20
ENDCHAR
STARTCHAR uni2215
ENCODING 8725
SWIDTH 278 0
DWIDTH 3 0
BBX 3 5 0 0
BITMAP
0230
0550
0740
3800
5500
ENDCHAR
STARTCHAR .notdef
ENCODING -1
SWIDTH 500 0
DWIDTH 6 0
BBX 5 13 0 -3
BITMAP
5988A0
710080
710080
710080
710080
710080
710080
710080
710080
710080
710080
710080
5988A0
ENDCHAR
STARTCHAR NULL
ENCODING -1
SWIDTH 600 0
DWIDTH 7 0
BBX 1 1 0 0
BITMAP
00
ENDCHAR
STARTCHAR acutecomb.case
ENCODING -1
SWIDTH 0 0
DWIDTH 0 0
BBX 3 3 0 11
BITMAP
0240
0660
3710
ENDCHAR
STARTCHAR ampersand.case
ENCODING -1
SWIDTH 797 0
DWIDTH 9 0
BBX 9 10 0 0
BITMAP
005AB50000
0385573000
0555555000
0467674000
0268650000
2766813000
5756776710
5831686500
4865477100
06BA567600
ENDCHAR
STARTCHAR asciicircum.case
ENCODING -1
SWIDTH 540 0
DWIDTH 6 0
BBX 6 5 0 5
BITMAP
005200
017600
056450
173470
660065
ENDCHAR
STARTCHAR asciitilde.case
ENCODING -1
SWIDTH 640 0
DWIDTH 7 0
BBX 7 3 0 4
BITMAP
26630020
45577840
2556A910
ENDCHAR
STARTCHAR asterisk.case
ENCODING -1
SWIDTH 482 0
DWIDTH 5 0
BBX 5 5 0 5
BITMAP
007300
252440
150330
064710
020200
ENDCHAR
STARTCHAR at.case
ENCODING -1
SWIDTH 915 0
DWIDTH 10 0
BBX 10 10 0 0
BITMAP
003ABBA400
0392000750
0932666183
4717569155
5546009155
5546009155
4716567654
0942565550
0492003000
0039AA9200
ENDCHAR
STARTCHAR backslash.case
ENCODING -1
SWIDTH 504 0
DWIDTH 6 0
BBX 6 11 0 -1
BITMAP
682000
555000
286000
068100
056500
038600
007810
005650
003750
000780
000574
ENDCHAR
STARTCHAR bar.case
ENCODING -1
SWIDTH 262 0
DWIDTH 3 0
BBX 3 11 0 -1
BITMAP
5550
5550
5550
5550
5550
5550
5550
5550
5550
5550
5550
ENDCHAR
STARTCHAR braceleft.case
ENCODING -1
SWIDTH 504 0
DWIDTH 6 0
BBX 5 12 0 -1
BITMAP
016350
028550
028550
028500
028500
258500
578500
028500
028500
028500
0285A0
016350
ENDCHAR
STARTCHAR braceright.case
ENCODING -1
SWIDTH 506 0
DWIDTH 6 0
BBX 5 12 0 -2
BITMAP
246300
578500
018500
018500
018500
0185A0
018550
018500
018500
248500
248500
246400
ENDCHAR
STARTCHAR bracketleft.case
ENCODING -1
SWIDTH 453 0
DWIDTH 5 0
BBX 5 12 0 -1
BITMAP
335520
556520
556520
555000
555000
555000
555000
555000
555000
555000
558A50
335520
ENDCHAR
STARTCHAR bracketright.case
ENCODING -1
SWIDTH 453 0
DWIDTH 5 0
BBX 5 12 0 -2
BITMAP
255330
5A8550
005550
005550
005550
005550
005550
005550
005550
256550
256550
255330
ENDCHAR
STARTCHAR brokenbar.case
ENCODING -1
SWIDTH 262 0
DWIDTH 3 0
BBX 3 11 0 0
BITMAP
5550
5550
5550
5550
5550
0000
5550
5550
5550
5550
5550
ENDCHAR
STARTCHAR bullet.case
ENCODING -1
SWIDTH 503 0
DWIDTH 6 0
BBX 5 6 0 2
BITMAP
035500
165550
550380
550380
165550
035500
ENDCHAR
STARTCHAR uni0327.case
ENCODING -1
SWIDTH 0 0
DWIDTH 0 0
BBX 3 4 0 -3
BITMAP
0300
0950
0060
2650
ENDCHAR
STARTCHAR cent.case
ENCODING -1
SWIDTH 577 0
DWIDTH 6 0
BBX 6 11 0 -1
BITMAP
000820
000620
005563
075662
366010
554000
456000
075565
005561
000620
000820
ENDCHAR
STARTCHAR uni0302.case
ENCODING -1
SWIDTH 0 0
DWIDTH 0 0
BBX 5 3 0 11
BITMAP
003300
057530
273570
ENDCHAR
STARTCHAR colon.case
ENCODING -1
SWIDTH 262 0
DWIDTH 3 0
BBX 3 7 0 0
BITMAP
5550
5550
0000
0000
0000
5550
5550
ENDCHAR
STARTCHAR comma.case
ENCODING -1
SWIDTH 338 0
DWIDTH 4 0
BBX 4 4 0 -1
BITMAP
0110
0681
1860
5650
ENDCHAR
STARTCHAR copyright.case
ENCODING -1
SWIDTH 895 0
DWIDTH 10 0
BBX 10 10 0 0
BITMAP
004ABBA300
0591002930
2A22662480
5516555064
5546000055
5546000055
5506565064
2922662480
0591002930
004AAA9300
ENDCHAR
STARTCHAR currency.case
ENCODING -1
SWIDTH 676 0
DWIDTH 7 0
BBX 7 8 0 1
BITMAP
01000100
06401730
36366460
02765610
03805600
03765520
56366560
06300630
ENDCHAR
STARTCHAR degree.case
ENCODING -1
SWIDTH 413 0
DWIDTH 5 0
BBX 5 5 0 5
BITMAP
1AC500
650A10
660830
556700
056300
ENDCHAR
STARTCHAR uni0308.case
ENCODING -1
SWIDTH 0 0
DWIDTH 0 0
BBX 6 3 0 10
BITMAP
163263
606606
163263
ENDCHAR
STARTCHAR divide.case
ENCODING -1
SWIDTH 618 0
DWIDTH 7 0
BBX 7 7 0 1
BITMAP
00062000
00062000
36666610
5BBBBB30
00071000
00144000
00071000
ENDCHAR
STARTCHAR uni2215.case
ENCODING -1
SWIDTH 483 0
DWIDTH 5 0
BBX 5 10 0 0
BITMAP
001960
005650
005730
008700
047500
056500
078100
286000
565000
682000
ENDCHAR
STARTCHAR dollar.case
ENCODING -1
SWIDTH 660 0
DWIDTH 7 0
BBX 7 11 0 -1
BITMAP
00082000
04485600
46686650
57484520
56763000
06767610
00166760
13282780
56586760
06586610
00082000
ENDCHAR
STARTCHAR eight.case
ENCODING -1
SWIDTH 561 0
DWIDTH 6 0
BBX 6 10 0 0
BITMAP
06BB70
485675
573195
567285
467664
366765
573685
573195
485675
06BB70
ENDCHAR
STARTCHAR ellipsis.case
ENCODING -1
SWIDTH 766 0
DWIDTH 8 0
BBX 8 2 0 0
BITMAP
55558177
55558187
ENDCHAR
STARTCHAR emdash.case
ENCODING -1
SWIDTH 790 0
DWIDTH 9 0
BBX 9 2 0 4
BITMAP
3666666610
5BBBBBBB20
ENDCHAR
STARTCHAR endash.case
ENCODING -1
SWIDTH 721 0
DWIDTH 8 0
BBX 8 2 0 4
BITMAP
36666662
5BBBBBB4
ENDCHAR
STARTCHAR equal.case
ENCODING -1
SWIDTH 618 0
DWIDTH 7 0
BBX 7 6 0 2
BITMAP
25555510
25555510
25555510
25555510
25555510
25555510
ENDCHAR
STARTCHAR Euro.case
ENCODING -1
SWIDTH 767 0
DWIDTH 8 0
BBX 8 10 0 0
BITMAP
0018BBA4
00876657
05760040
04620000
55555300
ABBBB600
04620000
05660050
00866657
0017BA94
ENDCHAR
STARTCHAR exclam.case
ENCODING -1
SWIDTH 262 0
DWIDTH 3 0
BBX 3 10 0 0
BITMAP
5550
5550
5550
5550
5550
5550
5550
2220
5550
5550
ENDCHAR
STARTCHAR exclamdown.case
ENCODING -1
SWIDTH 262 0
DWIDTH 3 0
BBX 3 10 0 -3
BITMAP
5550
5550
2220
5550
5550
5550
5550
5550
5550
5550
ENDCHAR
STARTCHAR five.case
ENCODING -1
SWIDTH 558 0
DWIDTH 6 0
BBX 6 10 0 0
BITMAP
255553
255553
333000
555000
556540
557B74
000195
563285
475665
06BB80
ENDCHAR
STARTCHAR four.case
ENCODING -1
SWIDTH 585 0
DWIDTH 6 0
BBX 7 10 0 0
BITMAP
00476000
00674000
02870000
05650000
17710000
45558100
46558410
46558410
46558410
00058100
ENDCHAR
STARTCHAR uni2074.case
ENCODING -1
SWIDTH 312 0
DWIDTH 3 0
BBX 4 5 0 5
BITMAP
0650
4700
5582
4482
0010
ENDCHAR
STARTCHAR fraction.case
ENCODING -1
SWIDTH 655 0
DWIDTH 7 0
BBX 7 10 0 0
BITMAP
00000650
00004700
00006500
00047000
00065000
00371000
00650000
03710000
06500000
37100000
ENDCHAR
STARTCHAR gravecomb.case
ENCODING -1
SWIDTH 0 0
DWIDTH 0 0
BBX 3 3 0 11
BITMAP
2300
0740
0560
ENDCHAR
STARTCHAR greater.case
ENCODING -1
SWIDTH 677 0
DWIDTH 7 0
BBX 7 9 0 0
BITMAP
20000000
46300000
47761000
04767500
00267650
05765200
46750000
46100000
10000000
ENDCHAR
STARTCHAR guillemotleft.case
ENCODING -1
SWIDTH 666 0
DWIDTH 7 0
BBX 7 7 0 1
BITMAP
00000010
02710550
26714660
36406620
37716750
05711650
00310030
ENDCHAR
STARTCHAR guillemotright.case
ENCODING -1
SWIDTH 666 0
DWIDTH 7 0
BBX 7 7 0 1
BITMAP
10001000
36106400
36516640
06713660
37715760
37306610
21003000
ENDCHAR
STARTCHAR guilsinglleft.case
ENCODING -1
SWIDTH 338 0
DWIDTH 4 0
BBX 4 6 0 1
BITMAP
0271
2671
3640
3771
0571
0031
ENDCHAR
STARTCHAR guilsinglright.case
ENCODING -1
SWIDTH 338 0
DWIDTH 4 0
BBX 4 7 0 1
BITMAP
1000
3610
3651
0671
3771
3730
2100
ENDCHAR
STARTCHAR hyphen.case
ENCODING -1
SWIDTH 445 0
DWIDTH 5 0
BBX 5 2 0 4
BITMAP
366620
5BBB40
ENDCHAR
STARTCHAR less.case
ENCODING -1
SWIDTH 677 0
DWIDTH 7 0
BBX 7 9 0 0
BITMAP
00000010
00000470
00036770
00467620
27765000
03677610
00047670
00001570
00000020
ENDCHAR
STARTCHAR logicalnot.case
ENCODING -1
SWIDTH 618 0
DWIDTH 7 0
BBX 7 5 0 1
BITMAP
25555510
5BBBBB30
00000000
00005640
00005640
ENDCHAR
STARTCHAR uni00B5.case
ENCODING -1
SWIDTH 792 0
DWIDTH 9 0
BBX 9 13 0 -3
BITMAP
5550058300
5550058300
5550058300
5550058300
5550058300
5550058300
5550058200
5550069100
5576676530
557AB72950
5550000000
5550000000
2220000000
ENDCHAR
STARTCHAR minus.case
ENCODING -1
SWIDTH 618 0
DWIDTH 7 0
BBX 7 2 0 4
BITMAP
36666610
5BBBBB30
ENDCHAR
STARTCHAR multiply.case
ENCODING -1
SWIDTH 580 0
DWIDTH 6 0
BBX 7 6 0 2
BITMAP
01304500
0A947720
00777400
04776300
2774B800
04400100
ENDCHAR
STARTCHAR nine.case
ENCODING -1
SWIDTH 558 0
DWIDTH 6 0
BBX 6 10 0 -1
BITMAP
06BB70
475675
573185
573096
37B796
036396
000096
573195
485675
06BB70
ENDCHAR
STARTCHAR numbersign.case
ENCODING -1
SWIDTH 776 0
DWIDTH 9 0
BBX 8 10 0 0
BITMAP
00582555
00690342
04874666
04955666
06755766
36664953
36665753
36666563
05815640
07805820
ENDCHAR
STARTCHAR one.case
ENCODING -1
SWIDTH 378 0
DWIDTH 4 0
BBX 4 10 0 0
BITMAP
4575
4575
4575
0375
0375
0375
0375
0375
0375
0375
ENDCHAR
STARTCHAR onehalf.case
ENCODING -1
SWIDTH 735 0
DWIDTH 8 0
BBX 8 10 0 0
BITMAP
58600570
04600750
04604700
04606500
01247000
000659B3
00470065
00650652
04701663
06501663
ENDCHAR
STARTCHAR onequarter.case
ENCODING -1
SWIDTH 722 0
DWIDTH 8 0
BBX 8 10 0 0
BITMAP
58600570
04600750
04604700
04606500
01247000
00065560
00471730
00653755
04702555
06500011
ENDCHAR
STARTCHAR uni00B9.case
ENCODING -1
SWIDTH 306 0
DWIDTH 3 0
BBX 3 5 0 5
BITMAP
5860
0460
0460
0460
0120
ENDCHAR
STARTCHAR ordfeminine.case
ENCODING -1
SWIDTH 456 0
DWIDTH 5 0
BBX 5 5 0 5
BITMAP
037300
057400
067700
275720
320220
ENDCHAR
STARTCHAR ordmasculine.case
ENCODING -1
SWIDTH 489 0
DWIDTH 5 0
BBX 5 5 0 5
BITMAP
07BA10
460470
540460
255550
036600
ENDCHAR
STARTCHAR paragraph.case
ENCODING -1
SWIDTH 893 0
DWIDTH 10 0
BBX 10 10 0 0
BITMAP
0655555551
5355555551
5665555551
5820058164
3665559164
0355559164
0000059164
0000059164
0000059164
0000059164
ENDCHAR
STARTCHAR parenleft.case
ENCODING -1
SWIDTH 290 0
DWIDTH 3 0
BBX 4 11 0 -1
BITMAP
0674
0870
4650
5650
5730
5820
5730
5650
4650
0870
0674
ENDCHAR
STARTCHAR parenright.case
ENCODING -1
SWIDTH 290 0
DWIDTH 3 0
BBX 4 11 -1 -1
BITMAP
1970
0682
0565
0285
0096
0087
0096
0285
0565
0582
1970
ENDCHAR
STARTCHAR percent.case
ENCODING -1
SWIDTH 827 0
DWIDTH 9 0
BBX 9 10 0 0
BITMAP
2AB6006660
6509227710
6409167500
0663377000
0000674000
0037726600
0067466550
0476191560
07730A1560
566004BA10
ENDCHAR
STARTCHAR period.case
ENCODING -1
SWIDTH 262 0
DWIDTH 3 0
BBX 3 2 0 0
BITMAP
5550
5550
ENDCHAR
STARTCHAR periodcentered.case
ENCODING -1
SWIDTH 262 0
DWIDTH 3 0
BBX 3 2 0 4
BITMAP
5550
5550
ENDCHAR
STARTCHAR plus.case
ENCODING -1
SWIDTH 616 0
DWIDTH 7 0
BBX 7 8 0 1
BITMAP
00111000
00564000
00564000
36566610
5B668B20
00564000
00564000
00221000
ENDCHAR
STARTCHAR plusminus.case
ENCODING -1
SWIDTH 618 0
DWIDTH 7 0
BBX 7 10 0 0
BITMAP
00111000
00564000
00564000
36566610
5B668B20
00564000
00564000
00221000
36666610
5BBBBB30
ENDCHAR
STARTCHAR question.case
ENCODING -1
SWIDTH 598 0
DWIDTH 7 0
BBX 6 10 0 0
BITMAP
046661
255636
445086
000259
001686
006771
005730
001210
005730
005730
ENDCHAR
STARTCHAR questiondown.case
ENCODING -1
SWIDTH 598 0
DWIDTH 7 0
BBX 6 10 0 -3
BITMAP
005730
005730
001210
005730
038710
196600
556000
545066
255636
046661
ENDCHAR
STARTCHAR quotedbl.case
ENCODING -1
SWIDTH 464 0
DWIDTH 5 0
BBX 5 4 0 6
BITMAP
591870
591870
591870
120110
ENDCHAR
STARTCHAR quotedblbase.case
ENCODING -1
SWIDTH 464 0
DWIDTH 5 0
BBX 5 4 0 -1
BITMAP
591860
591860
091460
020110
ENDCHAR
STARTCHAR quotedblleft.case
ENCODING -1
SWIDTH 464 0
DWIDTH 5 0
BBX 5 4 0 5
BITMAP
110100
550820
591860
591870
ENDCHAR
STARTCHAR quotedblright.case
ENCODING -1
SWIDTH 464 0
DWIDTH 5 0
BBX 5 4 0 6
BITMAP
591860
591860
091460
020110
ENDCHAR
STARTCHAR quoteleft.case
ENCODING -1
SWIDTH 212 0
DWIDTH 2 0
BBX 3 4 0 5
BITMAP
1100
5500
5910
5910
ENDCHAR
STARTCHAR quoteright.case
ENCODING -1
SWIDTH 212 0
DWIDTH 2 0
BBX 3 4 0 6
BITMAP
5910
5910
0910
0200
ENDCHAR
STARTCHAR quotesinglbase.case
ENCODING -1
SWIDTH 212 0
DWIDTH 2 0
BBX 3 4 0 -1
BITMAP
5910
5910
0910
0200
ENDCHAR
STARTCHAR quotesingle.case
ENCODING -1
SWIDTH 212 0
DWIDTH 2 0
BBX 3 4 0 6
BITMAP
5910
5910
5910
1200
ENDCHAR
STARTCHAR registered.case
ENCODING -1
SWIDTH 895 0
DWIDTH 10 0
BBX 10 10 0 0
BITMAP
004ABBA300
0591002930
2A24754480
5506866064
5506866055
55068A4055
5506465064
2924234480
0591002930
004AAA9300
ENDCHAR
STARTCHAR uni030A.case
ENCODING -1
SWIDTH 0 0
DWIDTH 0 0
BBX 3 3 0 10
BITMAP
1740
6060
1740
ENDCHAR
STARTCHAR section.case
ENCODING -1
SWIDTH 645 0
DWIDTH 7 0
BBX 7 13 0 -2
BITMAP
01566200
07756730
19465640
08A51000
0577A600
05366740
46616550
47754620
07679500
00456740
24657650
36555620
02656200
ENDCHAR
STARTCHAR semicolon.case
ENCODING -1
SWIDTH 338 0
DWIDTH 4 0
BBX 4 8 0 -1
BITMAP
0582
0582
0000
0000
0110
0681
1860
5650
ENDCHAR
STARTCHAR seven.case
ENCODING -1
SWIDTH 505 0
DWIDTH 6 0
BBX 6 10 0 0
BITMAP
455551
455551
355551
000870
003750
005650
006810
018600
046500
056400
ENDCHAR
STARTCHAR six.case
ENCODING -1
SWIDTH 558 0
DWIDTH 6 0
BBX 6 10 0 0
BITMAP
06BB70
485685
573285
582000
584540
587B74
582195
573285
485665
06BB80
ENDCHAR
STARTCHAR slash.case
ENCODING -1
SWIDTH 504 0
DWIDTH 6 0
BBX 6 11 0 -1
BITMAP
000564
000780
003750
005650
007810
038600
056500
068100
286000
565000
682000
ENDCHAR
STARTCHAR uni00AD.case
ENCODING -1
SWIDTH 445 0
DWIDTH 5 0
BBX 5 2 0 4
BITMAP
366620
5BBB40
ENDCHAR
STARTCHAR sterling.case
ENCODING -1
SWIDTH 618 0
DWIDTH 7 0
BBX 7 10 0 0
BITMAP
04666300
34554530
55504310
34400000
45555000
8BBBA000
00000000
37600000
55555530
9AAAAA50
ENDCHAR
STARTCHAR three.case
ENCODING -1
SWIDTH 558 0
DWIDTH 6 0
BBX 6 10 0 0
BITMAP
06BB70
485675
573185
000195
000554
000B74
000195
573285
485665
06BB80
ENDCHAR
STARTCHAR threequarters.case
ENCODING -1
SWIDTH 722 0
DWIDTH 8 0
BBX 8 10 0 0
BITMAP
3A900570
01600750
01814700
43716500
16447000
00065560
00471730
00653755
04702555
06500011
ENDCHAR
STARTCHAR uni00B3.case
ENCODING -1
SWIDTH 332 0
DWIDTH 4 0
BBX 4 5 0 5
BITMAP
3A90
0160
0181
4371
1640
ENDCHAR
STARTCHAR tildecomb.case
ENCODING -1
SWIDTH 0 0
DWIDTH 0 0
BBX 5 2 0 10
BITMAP
164030
302630
ENDCHAR
STARTCHAR trademark.case
ENCODING -1
SWIDTH 850 0
DWIDTH 9 0
BBX 9 5 0 4
BITMAP
5554590780
5774597880
0550587780
0550554280
0550550280
ENDCHAR
STARTCHAR two.case
ENCODING -1
SWIDTH 558 0
DWIDTH 6 0
BBX 6 10 0 0
BITMAP
066560
435625
463185
000375
000785
006791
047840
166500
255553
4AAAA6
ENDCHAR
STARTCHAR uni00B2.case
ENCODING -1
SWIDTH 339 0
DWIDTH 4 0
BBX 4 5 0 5
BITMAP
3AA0
0372
1660
3661
3661
ENDCHAR
STARTCHAR underscore.case
ENCODING -1
SWIDTH 667 0
DWIDTH 7 0
BBX 7 2 0 0
BITMAP
25555540
5AAAAA80
ENDCHAR
STARTCHAR yen.case
ENCODING -1
SWIDTH 769 0
DWIDTH 8 0
BBX 9 10 0 0
BITMAP
6660027720
1772066500
0566377100
0077574000
0047750000
0003410000
0255844000
0255844000
0255844000
0005820000
ENDCHAR
STARTCHAR zero.case
ENCODING -1
SWIDTH 558 0
DWIDTH 6 0
BBX 6 10 0 0
BITMAP
06BB70
485675
573196
582096
582096
582096
582096
573185
485675
06BB70
ENDCHAR
ENDFONT
